<?xml version="1.0" ?><svg id="Icons" viewBox="0 0 60 60" xmlns="http://www.w3.org/2000/svg"><defs><style>.cls-1{fill:#d75da6;}.cls-2{fill:#ed75b7;}.cls-3{fill:#f289ca;}</style></defs><title/><path class="cls-1" d="M54.36,35.58v.01A6.9,6.9,0,0,1,55,38.5c0,4.69-4.7,8.5-10.5,8.5a12.046,12.046,0,0,1-2.5-.25,9.864,9.864,0,0,1-7.54-5.77L45,30Z"/><path class="cls-2" d="M42,35V51.94A2.06,2.06,0,0,1,39.94,54h-.01a2.1,2.1,0,0,1-1.55-.7L32.6,46.68A2.017,2.017,0,0,0,31.09,46H31a4,4,0,0,1-4-4V35Z"/><path class="cls-3" d="M55.89,23.18a6.936,6.936,0,0,0-1.97-.91,1.231,1.231,0,0,1,.02-.2A9.461,9.461,0,0,0,54,21,10.981,10.981,0,0,0,43.57,10.03,11,11,0,0,0,36,7a11.13,11.13,0,0,0-3.84.7c-.05.02-.11.04-.16.06a7.875,7.875,0,0,0-2.28-1.28h-.01a7.885,7.885,0,0,0-6.19.33,7.493,7.493,0,0,0-1.85,1.24,6.95,6.95,0,0,0-8.69,1.09,6.67,6.67,0,0,0-1.31,1.89c-.22-.02-.44-.03-.67-.03a6.983,6.983,0,0,0-7,7c0,.08.01.17.01.25a6.975,6.975,0,0,0-1.99,9.37c-.01.13-.02.25-.02.38a8.872,8.872,0,0,0,.54,3.06,8.983,8.983,0,0,0,7.65,5.9A7.322,7.322,0,0,0,11,37a9.707,9.707,0,0,0,1.21-.09,8.975,8.975,0,0,0,15.4,4.17,8.79,8.79,0,0,0,1.21-1.64.914.914,0,0,1,.14.07,12.965,12.965,0,0,0,16.8-4.25,12.034,12.034,0,0,0,.96-1.67,7,7,0,1,0,9.17-10.41Z"/><path class="cls-2" d="M12.21,36.91A9.707,9.707,0,0,1,11,37a7.322,7.322,0,0,1-.81-.04,9.943,9.943,0,0,1-.17-2.62,1,1,0,1,1,2,.13Z"/><path class="cls-2" d="M28.82,39.44a8.79,8.79,0,0,1-1.21,1.64,13.1,13.1,0,0,1-3.11-1.95,1,1,0,1,1,1.28-1.54A11.846,11.846,0,0,0,28.82,39.44Z"/><path class="cls-2" d="M46.72,33.59a12.034,12.034,0,0,1-.96,1.67.914.914,0,0,1-.44-.24,8.185,8.185,0,0,1-2.07-3.43,1,1,0,0,1,1.92-.57A6.069,6.069,0,0,0,46.72,33.59Z"/><path class="cls-2" d="M47.62,14.06a.924.924,0,0,1-.42.1,1,1,0,0,1-.91-.59,10.013,10.013,0,0,0-2.72-3.54,11.064,11.064,0,0,1,3.37.71,12.156,12.156,0,0,1,1.17,2A1,1,0,0,1,47.62,14.06Z"/><path class="cls-2" d="M32,7.76A10.031,10.031,0,0,0,29.27,9a.949.949,0,0,1-.54.16,1,1,0,0,1-.55-1.83,11.444,11.444,0,0,1,1.53-.85h.01A7.875,7.875,0,0,1,32,7.76Z"/><path class="cls-2" d="M55.89,23.18a11.762,11.762,0,0,1-.79,3.46,1,1,0,0,1-.93.63.922.922,0,0,1-.36-.07.993.993,0,0,1-.57-1.29,10.007,10.007,0,0,0,.68-3.64A6.936,6.936,0,0,1,55.89,23.18Z"/><path class="cls-2" d="M5.07,31.29a1,1,0,0,1-.91.57.965.965,0,0,1-.43-.1,8.258,8.258,0,0,1-1.19-.7A8.872,8.872,0,0,1,2,28c0-.13.01-.25.02-.38a5.908,5.908,0,0,0,2.57,2.33A1.017,1.017,0,0,1,5.07,31.29Z"/><path class="cls-2" d="M7.43,16.1a1,1,0,0,1-.85,1.14,6.03,6.03,0,0,0-2.57,1.01c0-.08-.01-.17-.01-.25a6.944,6.944,0,0,1,.35-2.2,7.736,7.736,0,0,1,1.95-.54A.988.988,0,0,1,7.43,16.1Z"/><path class="cls-2" d="M15.57,11.14a1,1,0,0,1-.9.57.935.935,0,0,1-.43-.1,6,6,0,0,0-2.57-.58,6.67,6.67,0,0,1,1.31-1.89,8.023,8.023,0,0,1,2.12.66A1.013,1.013,0,0,1,15.57,11.14Z"/><path class="cls-2" d="M25.42,10.29a1.042,1.042,0,0,1-.58.18,1.011,1.011,0,0,1-.82-.43,5.952,5.952,0,0,0-2.35-1.99,7.493,7.493,0,0,1,1.85-1.24A7.737,7.737,0,0,1,25.66,8.9,1,1,0,0,1,25.42,10.29Z"/><path class="cls-1" d="M25,21a1,1,0,0,1-1-1,2,2,0,0,0-4,0,1,1,0,0,1-2,0,4,4,0,0,1,8,0A1,1,0,0,1,25,21Z"/><path class="cls-1" d="M37,21a1,1,0,0,1-1-1,2,2,0,0,0-4,0,1,1,0,0,1-2,0,4,4,0,0,1,8,0A1,1,0,0,1,37,21Z"/><path class="cls-1" d="M28,32a11.382,11.382,0,0,1-8.769-4.36,1,1,0,1,1,1.538-1.28A9.418,9.418,0,0,0,28,30a9.418,9.418,0,0,0,7.231-3.64,1,1,0,0,1,1.538,1.28A11.384,11.384,0,0,1,28,32Z"/></svg>